<?xml version="1.0" standalone="no"?>
<!DOCTYPE svg PUBLIC "-//W3C//DTD SVG 20010904//EN"
 "http://www.w3.org/TR/2001/REC-SVG-20010904/DTD/svg10.dtd">
<svg version="1.0" xmlns="http://www.w3.org/2000/svg"
 width="1432.000000pt" height="729.000000pt" viewBox="0 0 1432.000000 729.000000"
 preserveAspectRatio="xMidYMid meet">

<g transform="translate(0.000000,729.000000) scale(0.100000,-0.100000)"
fill="#000000" stroke="none">
<path d="M110 3630 l0 -3530 7070 0 7070 0 0 3530 0 3530 -7070 0 -7070 0 0
-3530z m13900 0 l0 -3300 -6830 0 -6830 0 0 3300 0 3300 6830 0 6830 0 0
-3300z"/>
<path d="M9975 6099 c-358 -49 -637 -191 -911 -464 -292 -291 -434 -594 -464
-989 -16 -217 18 -488 87 -681 39 -108 136 -290 211 -395 87 -122 271 -307
392 -392 278 -197 616 -292 966 -274 443 23 807 197 1096 522 287 325 422 713
405 1169 -16 425 -159 748 -466 1056 -237 236 -467 364 -776 429 -115 25 -422
35 -540 19z m460 -507 c151 -42 260 -97 377 -191 201 -160 343 -372 404 -606
23 -87 27 -120 27 -260 1 -175 -13 -274 -60 -412 -105 -317 -369 -588 -663
-681 -120 -38 -182 -47 -340 -46 -173 0 -269 18 -402 74 -259 111 -508 385
-604 668 -104 305 -83 620 61 889 155 291 431 507 735 574 114 25 360 20 465
-9z"/>
<path d="M12205 6096 c-201 -50 -333 -252 -296 -452 49 -268 318 -407 557
-289 113 55 183 147 209 274 44 210 -81 412 -290 466 -69 18 -111 18 -180 1z
m226 -78 c169 -79 243 -283 165 -454 -90 -195 -343 -255 -508 -121 -104 84
-151 233 -114 359 57 199 274 301 457 216z"/>
<path d="M12170 5720 l0 -230 30 0 29 0 3 98 3 97 63 -85 c35 -47 67 -91 71
-98 5 -9 22 -12 49 -10 l41 3 -64 85 -64 85 38 16 c21 9 48 30 60 45 20 25 22
38 19 93 -4 54 -8 67 -31 87 -36 31 -87 44 -174 44 l-73 0 0 -230z m191 141
c31 -25 32 -86 2 -111 -22 -17 -108 -34 -124 -24 -5 3 -9 39 -9 80 l0 74 54 0
c38 0 61 -6 77 -19z"/>
<path d="M2122 4508 l3 -1543 743 -3 742 -2 0 240 0 240 -500 0 -500 0 0 1305
0 1305 -245 0 -245 0 2 -1542z"/>
<path d="M4020 4505 l0 -1545 815 0 815 0 0 240 0 240 -570 0 -570 0 2 428 3
427 568 3 567 2 0 220 0 220 -570 0 -570 0 0 430 0 430 570 0 570 0 0 225 0
225 -815 0 -815 0 0 -1545z"/>
<path d="M6212 4508 l3 -1543 242 -3 243 -2 2 677 3 677 484 -677 483 -677
305 0 305 0 -19 28 c-10 16 -200 277 -423 581 -223 303 -406 556 -408 560 -2
5 30 15 70 21 128 22 253 72 358 143 288 196 426 509 391 882 -16 156 -44 265
-101 380 -122 250 -331 397 -667 467 -104 21 -131 22 -691 26 l-582 3 2 -1543z
m1053 1067 c291 -47 457 -172 504 -376 16 -68 13 -256 -4 -324 -49 -190 -188
-318 -390 -360 -101 -20 -313 -35 -507 -35 l-168 0 0 555 0 555 238 0 c161 0
266 -5 327 -15z"/>
<path d="M2395 2388 c-49 -123 -518 -1326 -522 -1341 -5 -16 2 -18 83 -15 l88
3 81 210 80 210 284 0 284 0 81 -212 81 -213 88 0 c48 0 87 3 87 6 0 4 -471
1216 -537 1382 -4 8 -30 12 -83 12 l-78 0 -17 -42z m203 -465 c55 -148 103
-276 107 -285 7 -17 -7 -18 -215 -18 -173 0 -221 3 -218 13 42 119 214 557
219 557 3 0 52 -120 107 -267z"/>
<path d="M9700 2275 l0 -85 70 0 70 0 0 85 0 85 -70 0 -70 0 0 -85z"/>
<path d="M5739 2050 c-115 -18 -207 -68 -295 -162 -93 -98 -134 -210 -134
-363 0 -160 48 -282 149 -378 75 -72 132 -103 232 -128 153 -39 311 -14 437
69 59 39 137 122 171 182 l22 40 -84 0 -84 0 -24 -35 c-31 -45 -91 -88 -154
-110 -75 -27 -222 -24 -299 5 -71 27 -139 87 -171 150 -23 46 -47 145 -37 155
3 3 201 5 439 5 l434 0 -6 63 c-34 320 -189 491 -465 510 -41 3 -100 2 -131
-3z m262 -172 c30 -13 69 -40 88 -59 38 -37 79 -119 88 -174 l6 -35 -361 0
-360 0 10 38 c32 118 119 210 234 246 76 24 224 17 295 -16z"/>
<path d="M6687 2046 c-92 -33 -164 -109 -188 -201 -17 -62 -6 -157 25 -209 33
-57 57 -74 191 -132 61 -26 126 -58 146 -71 97 -64 105 -207 13 -264 -49 -30
-131 -36 -179 -13 -44 21 -90 87 -100 145 l-7 39 -74 0 -75 0 7 -47 c18 -124
77 -213 172 -260 50 -24 69 -28 147 -28 78 0 97 4 147 28 73 36 140 110 159
174 8 26 13 78 13 114 -3 124 -53 181 -245 279 -155 78 -178 95 -195 137 -20
47 -9 98 31 138 77 77 205 44 221 -56 l7 -39 73 0 74 0 0 33 c0 100 -76 203
-171 231 -64 19 -141 20 -192 2z"/>
<path d="M7440 2051 c-154 -50 -241 -210 -196 -363 24 -84 69 -123 211 -183
139 -59 185 -90 208 -138 23 -48 22 -114 -3 -155 -40 -66 -161 -93 -229 -51
-50 30 -69 57 -88 122 l-16 57 -70 0 -70 0 5 -58 c10 -109 73 -203 166 -249
50 -24 69 -28 147 -28 76 0 99 4 146 26 140 66 208 214 165 361 -23 80 -80
129 -254 217 -78 40 -151 84 -162 98 -25 31 -27 101 -4 144 9 18 32 38 57 50
49 22 59 22 110 8 43 -12 77 -57 77 -101 l0 -28 75 0 75 0 0 43 c-1 81 -57
169 -135 210 -44 22 -170 33 -215 18z"/>
<path d="M8340 2050 c-71 -15 -185 -76 -238 -128 -106 -103 -160 -220 -169
-362 -7 -105 8 -179 53 -269 194 -388 732 -386 925 3 99 201 67 431 -83 591
-69 74 -132 117 -214 146 -68 23 -206 33 -274 19z m233 -160 c165 -51 265
-231 238 -425 -18 -127 -93 -233 -201 -284 -49 -23 -67 -26 -165 -26 -100 0
-115 3 -161 27 -68 36 -147 124 -173 192 -83 221 18 457 224 522 61 19 164 17
238 -6z"/>
<path d="M10425 2045 c-238 -43 -415 -262 -415 -515 0 -259 160 -465 399 -516
178 -37 350 4 472 113 51 47 139 156 139 174 0 5 -37 9 -82 9 l-83 0 -23 -35
c-52 -82 -161 -128 -297 -128 -140 0 -244 46 -307 138 -27 40 -58 133 -58 173
l0 22 436 0 437 0 -7 80 c-8 99 -43 213 -85 279 -73 113 -194 192 -326 211
-87 12 -112 11 -200 -5z m270 -161 c90 -32 159 -121 189 -246 l6 -28 -360 0
c-281 0 -360 3 -360 13 0 6 11 37 23 68 42 101 108 165 210 201 65 23 216 19
292 -8z"/>
<path d="M11383 2044 c-58 -21 -136 -93 -164 -151 -31 -66 -32 -180 -2 -238
34 -64 71 -92 204 -151 194 -88 225 -120 217 -225 -5 -67 -22 -92 -83 -120
-68 -32 -144 -22 -193 24 -33 30 -62 90 -62 127 l0 30 -76 0 -77 0 6 -55 c11
-110 83 -215 177 -259 69 -32 206 -30 280 5 117 55 171 133 178 261 4 69 2 84
-22 132 -34 69 -71 99 -215 171 -63 31 -131 68 -151 82 -127 83 -32 274 116
234 50 -13 71 -35 82 -87 l8 -39 78 -3 78 -3 -7 43 c-18 106 -60 169 -140 211
-53 27 -173 33 -232 11z"/>
<path d="M3490 2032 c-184 -61 -324 -232 -351 -426 -23 -172 25 -325 141 -449
234 -250 651 -193 804 110 20 40 36 75 36 78 0 3 -36 5 -80 5 l-79 0 -17 -35
c-25 -53 -115 -130 -176 -152 -34 -11 -81 -18 -133 -18 -67 0 -89 5 -136 28
-70 34 -142 109 -177 185 -24 51 -27 68 -27 172 0 104 3 121 27 172 35 76 106
150 171 179 70 31 217 34 292 5 57 -22 137 -93 155 -136 12 -30 13 -30 91 -30
51 0 79 4 79 11 0 6 -15 39 -32 73 -47 88 -122 159 -215 203 -74 36 -83 37
-198 40 -95 2 -131 -1 -175 -15z"/>
<path d="M4590 2036 c-81 -23 -154 -67 -220 -135 -102 -104 -150 -224 -150
-376 0 -151 51 -276 156 -381 233 -234 636 -174 788 116 20 37 36 73 36 79 0
7 -28 11 -78 11 l-77 0 -24 -45 c-30 -57 -79 -101 -151 -134 -45 -21 -70 -26
-140 -26 -77 0 -92 3 -152 33 -110 54 -179 153 -199 287 -19 122 19 258 96
343 138 153 440 129 541 -43 l26 -45 79 0 c43 0 79 2 79 5 0 23 -72 139 -113
183 -97 102 -200 143 -355 141 -54 0 -117 -6 -142 -13z"/>
<path d="M9429 2031 c-43 -14 -73 -32 -111 -69 l-38 -36 0 52 0 52 -75 0 -75
0 0 -500 0 -500 74 0 75 0 3 353 3 352 30 60 c40 79 91 108 183 103 l63 -3 -3
70 -3 70 -50 2 c-27 1 -62 -2 -76 -6z"/>
<path d="M9700 1530 l0 -500 70 0 70 0 0 500 0 500 -70 0 -70 0 0 -500z"/>
</g>
</svg>
